<mxfile host="app.diagrams.net" modified="2023-10-17T10:23:15.560Z" agent="Mozilla/5.0 (Windows NT 10.0; Win64; x64) AppleWebKit/537.36 (KHTML, like Gecko) Chrome/118.0.0.0 Safari/537.36 Edg/118.0.2088.46" etag="yLCqQ4Scqfa4V4DNmFTk" version="22.0.4" type="github">
  <diagram name="Page-1" id="74e2e168-ea6b-b213-b513-2b3c1d86103e">
    <mxGraphModel dx="1426" dy="751" grid="1" gridSize="10" guides="1" tooltips="1" connect="1" arrows="1" fold="1" page="1" pageScale="1" pageWidth="1100" pageHeight="850" background="none" math="0" shadow="0">
      <root>
        <mxCell id="0" />
        <mxCell id="1" parent="0" />
        <mxCell id="1ZdN2hWEId5Y2R2QHkT3-1" value="" style="edgeStyle=orthogonalEdgeStyle;rounded=0;orthogonalLoop=1;jettySize=auto;html=1;entryX=0.5;entryY=0;entryDx=0;entryDy=0;" edge="1" parent="1" source="5Nen1f2i7WrPqLZcY2Lx-1" target="1ZdN2hWEId5Y2R2QHkT3-4">
          <mxGeometry relative="1" as="geometry">
            <mxPoint x="430" y="160" as="targetPoint" />
          </mxGeometry>
        </mxCell>
        <mxCell id="5Nen1f2i7WrPqLZcY2Lx-1" value="Start" style="strokeWidth=2;html=1;shape=mxgraph.flowchart.start_1;whiteSpace=wrap;" parent="1" vertex="1">
          <mxGeometry x="200" y="120" width="100" height="60" as="geometry" />
        </mxCell>
        <mxCell id="5Nen1f2i7WrPqLZcY2Lx-4" value="FUND TOTAL RECORDS" style="whiteSpace=wrap;html=1;strokeWidth=2;" parent="1" vertex="1">
          <mxGeometry x="720" y="460" width="120" height="60" as="geometry" />
        </mxCell>
        <mxCell id="1ZdN2hWEId5Y2R2QHkT3-19" value="" style="edgeStyle=orthogonalEdgeStyle;rounded=0;orthogonalLoop=1;jettySize=auto;html=1;" edge="1" parent="1" source="1ZdN2hWEId5Y2R2QHkT3-2" target="1ZdN2hWEId5Y2R2QHkT3-18">
          <mxGeometry relative="1" as="geometry" />
        </mxCell>
        <mxCell id="1ZdN2hWEId5Y2R2QHkT3-2" value="連接Local Data base" style="rounded=0;whiteSpace=wrap;html=1;" vertex="1" parent="1">
          <mxGeometry x="510" y="365" width="120" height="60" as="geometry" />
        </mxCell>
        <mxCell id="1ZdN2hWEId5Y2R2QHkT3-6" value="" style="edgeStyle=orthogonalEdgeStyle;rounded=0;orthogonalLoop=1;jettySize=auto;html=1;entryX=0;entryY=0.5;entryDx=0;entryDy=0;" edge="1" parent="1" source="1ZdN2hWEId5Y2R2QHkT3-4" target="1ZdN2hWEId5Y2R2QHkT3-12">
          <mxGeometry relative="1" as="geometry">
            <mxPoint x="510" y="200" as="targetPoint" />
          </mxGeometry>
        </mxCell>
        <mxCell id="1ZdN2hWEId5Y2R2QHkT3-4" value="輸入stockId" style="rounded=0;whiteSpace=wrap;html=1;" vertex="1" parent="1">
          <mxGeometry x="190" y="305" width="120" height="60" as="geometry" />
        </mxCell>
        <mxCell id="1ZdN2hWEId5Y2R2QHkT3-5" value="取的stockName,作為本地數據庫的名稱" style="whiteSpace=wrap;html=1;rounded=0;" vertex="1" parent="1">
          <mxGeometry x="510" y="270" width="120" height="60" as="geometry" />
        </mxCell>
        <mxCell id="1ZdN2hWEId5Y2R2QHkT3-8" value="" style="endArrow=classic;html=1;rounded=0;exitX=0.5;exitY=1;exitDx=0;exitDy=0;entryX=0.5;entryY=0;entryDx=0;entryDy=0;" edge="1" parent="1" target="1ZdN2hWEId5Y2R2QHkT3-5">
          <mxGeometry width="50" height="50" relative="1" as="geometry">
            <mxPoint x="570" y="230" as="sourcePoint" />
            <mxPoint x="410" y="290" as="targetPoint" />
          </mxGeometry>
        </mxCell>
        <mxCell id="1ZdN2hWEId5Y2R2QHkT3-9" value="" style="endArrow=classic;html=1;rounded=0;exitX=1;exitY=0.5;exitDx=0;exitDy=0;entryX=0.5;entryY=0;entryDx=0;entryDy=0;" edge="1" parent="1" target="5Nen1f2i7WrPqLZcY2Lx-4">
          <mxGeometry width="50" height="50" relative="1" as="geometry">
            <mxPoint x="630" y="200" as="sourcePoint" />
            <mxPoint x="830" y="250" as="targetPoint" />
            <Array as="points">
              <mxPoint x="780" y="200" />
            </Array>
          </mxGeometry>
        </mxCell>
        <mxCell id="1ZdN2hWEId5Y2R2QHkT3-12" value="&#xa;&lt;span style=&quot;color: rgb(0, 0, 0); font-family: Helvetica; font-size: 12px; font-style: normal; font-variant-ligatures: normal; font-variant-caps: normal; font-weight: 400; letter-spacing: normal; orphans: 2; text-align: center; text-indent: 0px; text-transform: none; widows: 2; word-spacing: 0px; -webkit-text-stroke-width: 0px; background-color: rgb(251, 251, 251); text-decoration-thickness: initial; text-decoration-style: initial; text-decoration-color: initial; float: none; display: inline !important;&quot;&gt;Goto hkexnews download records&lt;/span&gt;&#xa;&#xa;" style="shape=hexagon;perimeter=hexagonPerimeter2;whiteSpace=wrap;html=1;fixedSize=1;" vertex="1" parent="1">
          <mxGeometry x="510" y="160" width="120" height="80" as="geometry" />
        </mxCell>
        <mxCell id="1ZdN2hWEId5Y2R2QHkT3-16" value="" style="endArrow=classic;html=1;rounded=0;exitX=0.5;exitY=1;exitDx=0;exitDy=0;entryX=0.5;entryY=0;entryDx=0;entryDy=0;" edge="1" parent="1" source="1ZdN2hWEId5Y2R2QHkT3-5" target="1ZdN2hWEId5Y2R2QHkT3-2">
          <mxGeometry width="50" height="50" relative="1" as="geometry">
            <mxPoint x="420" y="370" as="sourcePoint" />
            <mxPoint x="470" y="320" as="targetPoint" />
          </mxGeometry>
        </mxCell>
        <mxCell id="1ZdN2hWEId5Y2R2QHkT3-28" value="" style="edgeStyle=orthogonalEdgeStyle;rounded=0;orthogonalLoop=1;jettySize=auto;html=1;" edge="1" parent="1" source="1ZdN2hWEId5Y2R2QHkT3-18" target="1ZdN2hWEId5Y2R2QHkT3-27">
          <mxGeometry relative="1" as="geometry" />
        </mxCell>
        <mxCell id="1ZdN2hWEId5Y2R2QHkT3-56" value="沒有找到Table" style="edgeLabel;html=1;align=center;verticalAlign=middle;resizable=0;points=[];" vertex="1" connectable="0" parent="1ZdN2hWEId5Y2R2QHkT3-28">
          <mxGeometry x="0.2" relative="1" as="geometry">
            <mxPoint x="18" as="offset" />
          </mxGeometry>
        </mxCell>
        <mxCell id="1ZdN2hWEId5Y2R2QHkT3-18" value="找出 database records" style="whiteSpace=wrap;html=1;rounded=0;" vertex="1" parent="1">
          <mxGeometry x="510" y="460" width="120" height="60" as="geometry" />
        </mxCell>
        <mxCell id="1ZdN2hWEId5Y2R2QHkT3-27" value="新增table" style="whiteSpace=wrap;html=1;rounded=0;" vertex="1" parent="1">
          <mxGeometry x="250" y="460" width="120" height="60" as="geometry" />
        </mxCell>
        <mxCell id="1ZdN2hWEId5Y2R2QHkT3-39" value="" style="endArrow=classic;html=1;rounded=0;exitX=0.5;exitY=1;exitDx=0;exitDy=0;entryX=0.5;entryY=0;entryDx=0;entryDy=0;" edge="1" parent="1" source="1ZdN2hWEId5Y2R2QHkT3-18" target="1ZdN2hWEId5Y2R2QHkT3-60">
          <mxGeometry width="50" height="50" relative="1" as="geometry">
            <mxPoint x="690" y="590" as="sourcePoint" />
            <mxPoint x="700" y="570" as="targetPoint" />
          </mxGeometry>
        </mxCell>
        <mxCell id="1ZdN2hWEId5Y2R2QHkT3-42" value="找到記錄" style="edgeLabel;html=1;align=center;verticalAlign=middle;resizable=0;points=[];" vertex="1" connectable="0" parent="1ZdN2hWEId5Y2R2QHkT3-39">
          <mxGeometry x="-0.088" y="1" relative="1" as="geometry">
            <mxPoint as="offset" />
          </mxGeometry>
        </mxCell>
        <mxCell id="1ZdN2hWEId5Y2R2QHkT3-40" value="" style="endArrow=classic;html=1;rounded=0;entryX=0.5;entryY=0;entryDx=0;entryDy=0;exitX=0.5;exitY=1;exitDx=0;exitDy=0;" edge="1" parent="1" source="5Nen1f2i7WrPqLZcY2Lx-4" target="1ZdN2hWEId5Y2R2QHkT3-60">
          <mxGeometry width="50" height="50" relative="1" as="geometry">
            <mxPoint x="690" y="590" as="sourcePoint" />
            <mxPoint x="700" y="570" as="targetPoint" />
          </mxGeometry>
        </mxCell>
        <mxCell id="1ZdN2hWEId5Y2R2QHkT3-46" value="" style="edgeStyle=orthogonalEdgeStyle;rounded=0;orthogonalLoop=1;jettySize=auto;html=1;entryX=0.5;entryY=0;entryDx=0;entryDy=0;exitX=0.5;exitY=1;exitDx=0;exitDy=0;" edge="1" parent="1" source="1ZdN2hWEId5Y2R2QHkT3-60" target="1ZdN2hWEId5Y2R2QHkT3-47">
          <mxGeometry relative="1" as="geometry">
            <mxPoint x="700" y="630" as="sourcePoint" />
            <mxPoint x="670" y="690" as="targetPoint" />
          </mxGeometry>
        </mxCell>
        <mxCell id="1ZdN2hWEId5Y2R2QHkT3-48" value="沒有數據可作更新" style="edgeLabel;html=1;align=center;verticalAlign=middle;resizable=0;points=[];" vertex="1" connectable="0" parent="1ZdN2hWEId5Y2R2QHkT3-46">
          <mxGeometry x="-0.1" relative="1" as="geometry">
            <mxPoint as="offset" />
          </mxGeometry>
        </mxCell>
        <mxCell id="1ZdN2hWEId5Y2R2QHkT3-50" value="" style="edgeStyle=orthogonalEdgeStyle;rounded=0;orthogonalLoop=1;jettySize=auto;html=1;exitX=0;exitY=0.5;exitDx=0;exitDy=0;" edge="1" parent="1" source="1ZdN2hWEId5Y2R2QHkT3-60" target="1ZdN2hWEId5Y2R2QHkT3-49">
          <mxGeometry relative="1" as="geometry">
            <mxPoint x="640" y="600" as="sourcePoint" />
          </mxGeometry>
        </mxCell>
        <mxCell id="1ZdN2hWEId5Y2R2QHkT3-51" value="有數據更新" style="edgeLabel;html=1;align=center;verticalAlign=middle;resizable=0;points=[];" vertex="1" connectable="0" parent="1ZdN2hWEId5Y2R2QHkT3-50">
          <mxGeometry x="-0.05" y="-1" relative="1" as="geometry">
            <mxPoint as="offset" />
          </mxGeometry>
        </mxCell>
        <mxCell id="1ZdN2hWEId5Y2R2QHkT3-59" value="有可用更新" style="edgeStyle=orthogonalEdgeStyle;rounded=0;orthogonalLoop=1;jettySize=auto;html=1;exitX=1;exitY=0.5;exitDx=0;exitDy=0;" edge="1" parent="1" source="1ZdN2hWEId5Y2R2QHkT3-60" target="1ZdN2hWEId5Y2R2QHkT3-58">
          <mxGeometry relative="1" as="geometry">
            <mxPoint x="760" y="600" as="sourcePoint" />
          </mxGeometry>
        </mxCell>
        <mxCell id="1ZdN2hWEId5Y2R2QHkT3-47" value="End" style="rounded=1;whiteSpace=wrap;html=1;" vertex="1" parent="1">
          <mxGeometry x="625" y="760" width="120" height="60" as="geometry" />
        </mxCell>
        <mxCell id="1ZdN2hWEId5Y2R2QHkT3-49" value="將更新寫入數據庫" style="whiteSpace=wrap;html=1;rounded=0;" vertex="1" parent="1">
          <mxGeometry x="390" y="605" width="120" height="60" as="geometry" />
        </mxCell>
        <mxCell id="1ZdN2hWEId5Y2R2QHkT3-57" value="" style="endArrow=classic;html=1;rounded=0;exitX=0.5;exitY=1;exitDx=0;exitDy=0;entryX=0.5;entryY=0;entryDx=0;entryDy=0;" edge="1" parent="1" source="1ZdN2hWEId5Y2R2QHkT3-27" target="1ZdN2hWEId5Y2R2QHkT3-49">
          <mxGeometry width="50" height="50" relative="1" as="geometry">
            <mxPoint x="690" y="590" as="sourcePoint" />
            <mxPoint x="740" y="540" as="targetPoint" />
          </mxGeometry>
        </mxCell>
        <mxCell id="1ZdN2hWEId5Y2R2QHkT3-58" value="執行網站更新" style="whiteSpace=wrap;html=1;rounded=0;" vertex="1" parent="1">
          <mxGeometry x="840" y="605" width="120" height="60" as="geometry" />
        </mxCell>
        <mxCell id="1ZdN2hWEId5Y2R2QHkT3-60" value="記錄作出對比" style="rhombus;whiteSpace=wrap;html=1;" vertex="1" parent="1">
          <mxGeometry x="630" y="580" width="110" height="110" as="geometry" />
        </mxCell>
        <mxCell id="1ZdN2hWEId5Y2R2QHkT3-63" value="" style="endArrow=classic;html=1;rounded=0;exitX=0.5;exitY=1;exitDx=0;exitDy=0;entryX=0.558;entryY=0.038;entryDx=0;entryDy=0;entryPerimeter=0;" edge="1" parent="1" source="1ZdN2hWEId5Y2R2QHkT3-49" target="1ZdN2hWEId5Y2R2QHkT3-47">
          <mxGeometry width="50" height="50" relative="1" as="geometry">
            <mxPoint x="260" y="730" as="sourcePoint" />
            <mxPoint x="310" y="680" as="targetPoint" />
          </mxGeometry>
        </mxCell>
        <mxCell id="1ZdN2hWEId5Y2R2QHkT3-64" value="" style="endArrow=classic;html=1;rounded=0;exitX=0.5;exitY=1;exitDx=0;exitDy=0;entryX=0.5;entryY=0;entryDx=0;entryDy=0;" edge="1" parent="1" source="1ZdN2hWEId5Y2R2QHkT3-58" target="1ZdN2hWEId5Y2R2QHkT3-47">
          <mxGeometry width="50" height="50" relative="1" as="geometry">
            <mxPoint x="890" y="750" as="sourcePoint" />
            <mxPoint x="940" y="700" as="targetPoint" />
          </mxGeometry>
        </mxCell>
      </root>
    </mxGraphModel>
  </diagram>
</mxfile>
